<svg xmlns="http://www.w3.org/2000/svg" xmlns:xlink="http://www.w3.org/1999/xlink" version="1.1" data-diagram-type="DESCRIPTION" style="width:551px;height:459px;background:#FFFFFF;" width="551px" height="459px" viewBox="0 0 551 459" zoomAndPan="magnify" preserveAspectRatio="none" contentStyleType="text/css"><?plantuml 1.2026.7?><defs/><g font-family="sans-serif" lengthAdjust="spacing"><g class="title" data-source-line="1"><text x="179.893" y="24.533" fill="#000" font-size="14" textLength="184.379" font-weight="700">Technical Competency Map</text></g><!--entity REQ--><g class="entity" data-qualified-name="REQ" id="ent0001" data-source-line="15"><rect x="156.5" y="45.609" width="201.269" height="55.219" fill="#0D1117" style="stroke:#30363D;stroke-width:0.5;" rx="9" ry="9"/><text x="200.741" y="70.143" fill="#F0F6FC" font-size="14" textLength="112.786">REQUIREMENTS</text><text x="166.5" y="87.752" fill="#F0F6FC" font-size="14" textLength="181.269">BPMN · Business Rules · AC</text></g><!--entity DATA--><g class="entity" data-qualified-name="DATA" id="ent0002" data-source-line="16"><rect x="7" y="160.609" width="139.793" height="55.219" fill="#0D1117" style="stroke:#30363D;stroke-width:0.5;" rx="9" ry="9"/><text x="58.228" y="185.143" fill="#F0F6FC" font-size="14" textLength="37.338">DATA</text><text x="17" y="202.752" fill="#F0F6FC" font-size="14" textLength="119.793">SQL · JSON · ERD</text></g><!--entity SA--><g class="entity" data-qualified-name="SA" id="ent0003" data-source-line="17"><rect x="182" y="169.109" width="149.931" height="37.609" fill="#0D1117" style="stroke:#30363D;stroke-width:0.5;" rx="9" ry="9"/><text x="192" y="193.643" fill="#F0F6FC" font-size="14" textLength="129.931">SYSTEM ANALYSIS</text></g><!--entity DESIGN--><g class="entity" data-qualified-name="DESIGN" id="ent0004" data-source-line="18"><rect x="367" y="160.609" width="170.165" height="55.219" fill="#0D1117" style="stroke:#30363D;stroke-width:0.5;" rx="9" ry="9"/><text x="394.517" y="185.143" fill="#F0F6FC" font-size="14" textLength="115.131">SYSTEM DESIGN</text><text x="377" y="202.752" fill="#F0F6FC" font-size="14" textLength="150.165">UML · API · Integrations</text></g><!--entity DEV--><g class="entity" data-qualified-name="DEV" id="ent0005" data-source-line="19"><rect x="159.5" y="275.609" width="195.055" height="55.219" fill="#0D1117" style="stroke:#30363D;stroke-width:0.5;" rx="9" ry="9"/><text x="194.8" y="300.143" fill="#F0F6FC" font-size="14" textLength="124.455">IMPLEMENTATION</text><text x="169.5" y="317.752" fill="#F0F6FC" font-size="14" textLength="175.055">C# · Flutter · React · Python</text></g><!--entity DELIVERY--><g class="entity" data-qualified-name="DELIVERY" id="ent0006" data-source-line="20"><rect x="158.5" y="390.609" width="197.365" height="55.219" fill="#0D1117" style="stroke:#30363D;stroke-width:0.5;" rx="9" ry="9"/><text x="222.559" y="415.143" fill="#F0F6FC" font-size="14" textLength="69.248">DELIVERY</text><text x="168.5" y="432.752" fill="#F0F6FC" font-size="14" textLength="177.365">Docker · Git · Postman · Jira</text></g><!--link REQ to SA--><g class="link" data-entity-1="ent0001" data-entity-2="ent0003" id="lnk7" data-source-line="22" data-link-type="dependency"><path d="M257,100.889 C257,121.899 257,145.589 257,163.979" style="stroke:#8B949E;stroke-width:1.2;" fill="none" id="REQ-to-SA"/><polygon points="257,168.979,261,159.979,257,163.979,253,159.979,257,168.979" fill="#8B949E" style="stroke:#8B949E;stroke-width:1.2;stroke-linejoin:miter;stroke-miterlimit:10;"/></g><!--link DATA to SA--><g class="link" data-entity-1="ent0002" data-entity-2="ent0003" id="lnk8" data-source-line="23" data-link-type="dependency"><path d="M147.31,188.109 C158.74,188.109 165.16,188.109 176.59,188.109" style="stroke:#8B949E;stroke-width:1.2;" fill="none" id="DATA-to-SA"/><polygon points="181.59,188.109,172.59,184.109,176.59,188.109,172.59,192.109,181.59,188.109" fill="#8B949E" style="stroke:#8B949E;stroke-width:1.2;stroke-linejoin:miter;stroke-miterlimit:10;"/></g><!--link SA to DESIGN--><g class="link" data-entity-1="ent0003" data-entity-2="ent0004" id="lnk9" data-source-line="24" data-link-type="dependency"><path d="M332.03,188.109 C343.59,188.109 350.15,188.109 361.71,188.109" style="stroke:#8B949E;stroke-width:1.2;" fill="none" id="SA-to-DESIGN"/><polygon points="366.71,188.109,357.71,184.109,361.71,188.109,357.71,192.109,366.71,188.109" fill="#8B949E" style="stroke:#8B949E;stroke-width:1.2;stroke-linejoin:miter;stroke-miterlimit:10;"/></g><!--link SA to DEV--><g class="link" data-entity-1="ent0003" data-entity-2="ent0005" id="lnk10" data-source-line="25" data-link-type="dependency"><path d="M257,207.269 C257,225.729 257,249.549 257,270.569" style="stroke:#8B949E;stroke-width:1.2;" fill="none" id="SA-to-DEV"/><polygon points="257,275.569,261,266.569,257,270.569,253,266.569,257,275.569" fill="#8B949E" style="stroke:#8B949E;stroke-width:1.2;stroke-linejoin:miter;stroke-miterlimit:10;"/></g><!--link DEV to DELIVERY--><g class="link" data-entity-1="ent0005" data-entity-2="ent0006" id="lnk11" data-source-line="26" data-link-type="dependency"><path d="M257,330.889 C257,348.899 257,367.549 257,385.519" style="stroke:#8B949E;stroke-width:1.2;" fill="none" id="DEV-to-DELIVERY"/><polygon points="257,390.519,261,381.519,257,385.519,253,381.519,257,390.519" fill="#8B949E" style="stroke:#8B949E;stroke-width:1.2;stroke-linejoin:miter;stroke-miterlimit:10;"/></g><?plantuml-src RLB1RkCW5BpxAr1xpYhUhBhjfHAnSULLd2R6hHGf5qIeZU8y8i3gLglzhjxxPGLigRJgmPWtRsRq1h3IzW8rWdSWEUjHfavdOGNm5rInSvAOeuGpq-o4JCSEwbb2YvvORqJKqMg00rSQX4RfTTGuY2SszBOHVotkPGid0HPnjmWTiR3MwZbJlTBeydfvy-k6V6qsdUH74CQWzCVFU2Ojk6NGkWJ_4eIMZ1_RCCpaDi_JDFtjEqeVX9xGnNnnjSWTMYYm4rRCYwiYI_udoOVbHKss3sLDAh9kw1wMcsgDtbxHSZ0op58FlJ0UmTa5OgucsrYTumRlWMvNdlA7tWSngVF0zSsOJ7Uq8HN2QxpQqP863lsEaHDQtgtty505Nxmf_QzqHzfgPgK2C_e7MgmlgyqgHC5DUUyCiailBFh1kjlmsremRlrcys8x1PFDuwT8P5K-adgtXrpnuoYxawD86NjY4B9ApIRrI4yITpHevbuFp6vzB9yUpRHiEpi2D2gdqJqqAVmKxelgoVST?></g></svg>